<?xml version="1.0" encoding="UTF-8" standalone="no"?><!DOCTYPE svg PUBLIC "-//W3C//DTD SVG 1.1//EN" "http://www.w3.org/Graphics/SVG/1.1/DTD/svg11.dtd"><svg width="100%" height="100%" viewBox="0 0 24 24" version="1.1" xmlns="http://www.w3.org/2000/svg" xmlns:xlink="http://www.w3.org/1999/xlink" xml:space="preserve" xmlns:serif="http://www.serif.com/" style="fill-rule:evenodd;clip-rule:evenodd;stroke-linecap:round;stroke-linejoin:round;stroke-miterlimit:1.5;"><g id="PlayButton"><path d="M5.87,5.229l13.531,7.847l-13.531,7.055l-0,-14.902Z" style="fill:#33bc3a;"/><g id="Body"><path d="M5.87,20.131l-0,-14.902" style="fill:none;"/><path d="M6.37,20.131c-0,0.276 -0.224,0.5 -0.5,0.5c-0.276,0 -0.5,-0.224 -0.5,-0.5l-0,-14.902c-0,-0.276 0.224,-0.5 0.5,-0.5c0.276,-0 0.5,0.224 0.5,0.5l-0,14.902Z"/><path d="M5.87,20.131l13.531,-7.055" style="fill:none;"/><path d="M6.101,20.574c-0.245,0.128 -0.547,0.033 -0.675,-0.212c-0.127,-0.245 -0.032,-0.547 0.213,-0.674l13.531,-7.055c0.245,-0.128 0.547,-0.033 0.675,0.212c0.127,0.245 0.032,0.547 -0.213,0.674l-13.531,7.055Z"/><path d="M5.87,5.229l13.531,7.847" style="fill:none;"/><path d="M5.619,5.662c-0.239,-0.139 -0.32,-0.445 -0.182,-0.684c0.139,-0.239 0.445,-0.32 0.684,-0.182l13.531,7.848c0.239,0.138 0.32,0.444 0.182,0.683c-0.139,0.239 -0.445,0.32 -0.684,0.182l-13.531,-7.847Z"/></g><g id="Eyes"><circle cx="6.485" cy="4.952" r="1.886" style="fill:#ebebeb;"/><clipPath id="_clip1"><circle cx="6.485" cy="4.952" r="1.886"/></clipPath><g clip-path="url(#_clip1)"><path d="M7.58,6.489c-0.309,0.22 -0.687,0.35 -1.095,0.35c-1.041,-0 -1.886,-0.845 -1.886,-1.887c-0,-1.041 0.845,-1.886 1.886,-1.886c0.893,-0 1.641,0.621 1.837,1.454c-0.48,0.342 -0.792,0.903 -0.792,1.536c-0,0.149 0.017,0.294 0.05,0.433Z" style="fill:#e9f3f7;"/></g><circle cx="6.485" cy="4.952" r="1.886" style="fill:none;stroke:#000;stroke-width:0.45px;"/><circle cx="9.416" cy="6.056" r="1.886" style="fill:#ebebeb;"/><clipPath id="_clip2"><circle cx="9.416" cy="6.056" r="1.886"/></clipPath><g clip-path="url(#_clip2)"><path d="M8.322,4.52c0.309,-0.221 0.686,-0.351 1.094,-0.351c0.999,0 1.817,0.778 1.882,1.76c-0.563,0.326 -0.943,0.936 -0.943,1.634c0,0.042 0.002,0.085 0.005,0.127c-0.278,0.16 -0.6,0.252 -0.944,0.252c-0.892,0 -1.64,-0.62 -1.836,-1.453c0.479,-0.342 0.792,-0.903 0.792,-1.537c-0,-0.149 -0.017,-0.293 -0.05,-0.432Z" style="fill:#e9f3f7;"/></g><circle cx="9.416" cy="6.056" r="1.886" style="fill:none;stroke:#000;stroke-width:0.45px;"/><circle cx="12.242" cy="7.563" r="1.886" style="fill:#ebebeb;"/><clipPath id="_clip3"><circle cx="12.242" cy="7.563" r="1.886"/></clipPath><g clip-path="url(#_clip3)"><path d="M11.298,5.929c0.278,-0.161 0.6,-0.253 0.944,-0.253c0.98,0 1.787,0.75 1.878,1.707c-0.554,0.329 -0.926,0.933 -0.926,1.623c0,0.061 0.003,0.121 0.009,0.18c-0.282,0.167 -0.61,0.263 -0.961,0.263c-0.999,0 -1.817,-0.777 -1.882,-1.759c0.563,-0.327 0.943,-0.936 0.943,-1.634c-0,-0.043 -0.002,-0.085 -0.005,-0.127Z" style="fill:#e9f3f7;"/></g><circle cx="12.242" cy="7.563" r="1.886" style="fill:none;stroke:#000;stroke-width:0.45px;"/><circle cx="15.081" cy="9.006" r="1.886" style="fill:#ebebeb;"/><clipPath id="_clip4"><circle cx="15.081" cy="9.006" r="1.886"/></clipPath><g clip-path="url(#_clip4)"><path d="M14.12,7.383c0.281,-0.167 0.61,-0.263 0.961,-0.263c1.041,-0 1.886,0.845 1.886,1.886c0,1.041 -0.845,1.887 -1.886,1.887c-0.981,-0 -1.787,-0.75 -1.878,-1.707c0.554,-0.329 0.925,-0.933 0.925,-1.623c0,-0.061 -0.003,-0.121 -0.008,-0.18Z" style="fill:#e9f3f7;"/></g><circle cx="15.081" cy="9.006" r="1.886" style="fill:none;stroke:#000;stroke-width:0.45px;"/></g><g id="Pupils"><ellipse cx="6.816" cy="5.067" rx="0.214" ry="0.239" style="stroke:#000;stroke-width:0.45px;"/><ellipse cx="9.383" cy="6.067" rx="0.214" ry="0.239" style="stroke:#000;stroke-width:0.45px;"/><ellipse cx="11.984" cy="7.427" rx="0.214" ry="0.239" style="stroke:#000;stroke-width:0.45px;"/><ellipse cx="14.391" cy="8.648" rx="0.214" ry="0.239" style="stroke:#000;stroke-width:0.45px;"/></g><path id="Smile" d="M10.64,13.125c0,-0.138 0.112,-0.25 0.25,-0.25c0.138,0 0.25,0.112 0.25,0.25c0,0.651 -0.051,1.357 0.427,1.85c0.32,0.33 0.871,0.553 1.799,0.624c0.137,0.01 0.24,0.131 0.23,0.268c-0.011,0.138 -0.131,0.241 -0.268,0.23c-1.1,-0.084 -1.74,-0.382 -2.12,-0.774c-0.572,-0.59 -0.568,-1.419 -0.568,-2.198Z"/></g></svg>