<?xml version="1.0" encoding="UTF-8" standalone="no"?><!DOCTYPE svg PUBLIC "-//W3C//DTD SVG 1.1//EN" "http://www.w3.org/Graphics/SVG/1.1/DTD/svg11.dtd"><svg width="100%" height="100%" viewBox="0 0 24 24" version="1.1" xmlns="http://www.w3.org/2000/svg" xmlns:xlink="http://www.w3.org/1999/xlink" xml:space="preserve" xmlns:serif="http://www.serif.com/" style="fill-rule:evenodd;clip-rule:evenodd;stroke-linecap:round;stroke-linejoin:round;stroke-miterlimit:1.5;"><g id="StopButton"><path id="Body" d="M14.671,6.892l4.617,0l-0,13.268l-14.177,-0l0,-13.268l4.065,0m0,0l5.495,0" style="fill:#e0383a;stroke:#000;stroke-width:1px;"/><g id="eye"><ellipse id="eye1" serif:id="eye" cx="12.115" cy="12.216" rx="4.595" ry="3.224" style="fill:#f4e9cb;stroke:#000;stroke-width:0.5px;"/><ellipse id="contourn" cx="12.12" cy="12.456" rx="1.793" ry="1.182" style="fill:#f0ab52;stroke:#000;stroke-width:0.25px;"/><ellipse id="pupil" cx="12.097" cy="12.13" rx="0.479" ry="0.407" style="stroke:#000;stroke-width:0.25px;"/></g><g id="Eyebrow"><path id="color" d="M2.761,5.779c0,0 1.794,0.208 4.167,0.494l0.426,-2.857c0,-0 4.274,10.396 9.264,0.062c-0,-0 0.732,1.426 0.454,2.74c2.383,-0.161 2.353,-0.263 3.686,-1.32c-0,-0 -1.086,2.365 -2.252,2.948c-0,-0 1.949,-0.268 2.556,-0.721c-10.755,10.058 -18.077,0.154 -18.077,0.154c-0,-0 2.047,0.574 3.086,0.483c0,0 -3.071,-1.229 -3.31,-1.983Z" style="fill:#4f1819;"/><g id="line"><path d="M2.985,7.279c-0,-0 7.322,9.904 18.077,-0.154" style="fill:none;stroke:#000;stroke-width:0.5px;"/><path d="M17.072,6.218c2.383,-0.161 2.353,-0.263 3.686,-1.32m-17.997,0.881c0,0 1.794,0.208 4.167,0.494" style="fill:none;stroke:#000;stroke-width:0.5px;"/><path d="M20.758,4.898c-0,-0 -1.086,2.365 -2.252,2.948" style="fill:none;stroke:#000;stroke-width:0.5px;"/><path d="M18.506,7.846c-0,-0 2.666,-0.366 2.733,-0.967" style="fill:none;stroke:#000;stroke-width:0.5px;"/><path d="M2.985,7.279c-0,-0 2.047,0.574 3.086,0.483" style="fill:none;stroke:#000;stroke-width:0.5px;"/><path d="M6.071,7.762c0,0 -3.071,-1.229 -3.31,-1.983" style="fill:none;stroke:#000;stroke-width:0.5px;"/><path d="M7.354,3.416c0,-0 4.274,10.396 9.264,0.062" style="fill:none;stroke:#000;stroke-width:0.5px;"/><path d="M16.618,3.478c-0,-0 0.732,1.426 0.454,2.74" style="fill:none;stroke:#000;stroke-width:0.5px;"/><path d="M7.354,3.416c0,-0 -0.593,1.599 -0.426,2.857" style="fill:#4f1819;stroke:#000;stroke-width:0.5px;"/></g></g><path id="mouth" d="M9.251,18.459c-0,0 2.091,-2.447 6.427,-1.319" style="fill:none;stroke:#000;stroke-width:0.5px;"/></g></svg>